Coordinates
version=1
nRows=28
nColumns=23
inDegrees=yes

Units are S.I. units (second, meters, Newtons, ...)
If the header above contains a line with 'inDegrees', this indicates whether rotational values are in degrees (yes) or radians (no).

endheader
time	pelvis_tilt	pelvis_list	pelvis_rotation	pelvis_tx	pelvis_ty	pelvis_tz	hip_flexion_r	hip_adduction_r	hip_rotation_r	knee_angle_r	knee_angle_r_beta	ankle_angle_r	subtalar_angle_r	mtp_angle_r	hip_flexion_l	hip_adduction_l	hip_rotation_l	knee_angle_l	knee_angle_l_beta	ankle_angle_l	subtalar_angle_l	mtp_angle_l
      7.50000000	    -17.71712607	     -2.55224952	     -5.54295019	      2.12917932	      1.05627462	      0.99734914	     56.93893945	      7.18026870	     -0.78219520	     82.97100886	      1.44811729	     -3.83986444	    -27.34891800	      0.00000000	     -7.43864105	     -4.27551271	    -31.53338458	     20.33338563	      0.35488453	    -20.48836682	      2.42221434	      0.00000000
      7.50666667	    -17.63585579	     -3.34429546	     -5.11168986	      2.13098543	      1.06066994	      0.99756763	     56.60200569	      7.40367639	     -1.77895406	     78.93667116	      1.37770481	     -3.32614912	    -26.97617961	      0.00000000	     -8.40510408	     -5.58299930	    -32.85358432	     21.52836866	      0.37574092	    -22.14513050	      0.58043834	      0.00000000
      7.51333333	    -17.29980599	     -4.19725180	     -4.58407407	      2.13269181	      1.06499799	      0.99773960	     55.87438911	      7.56191531	     -2.89064046	     74.78891106	      1.30531274	     -2.81364751	    -26.35872356	      0.00000000	     -9.54505547	     -6.98047160	    -33.84132070	     22.97846688	      0.40104990	    -23.16909567	     -1.23901077	      0.00000000
      7.52000000	    -16.93088680	     -4.96830380	     -4.05066180	      2.13402131	      1.06886193	      0.99812814	     55.04675206	      7.69508418	     -3.94850459	     70.59008151	      1.23202934	     -2.33468850	    -25.43213920	      0.00000000	    -10.56101035	     -8.30419495	    -34.28721814	     24.72645090	      0.43155798	    -23.58728261	     -3.05428724	      0.00000000
      7.52666667	    -16.40630027	     -5.69330865	     -3.44078717	      2.13513578	      1.07255720	      0.99848179	     53.95935510	      7.72986922	     -5.06982791	     66.30585149	      1.15725542	     -1.87986140	    -24.09157529	      0.00000000	    -11.60242132	     -9.52597659	    -34.08135222	     26.61755282	      0.46456394	    -23.69487614	     -4.91268669	      0.00000000
      7.53333333	    -15.76887336	     -6.39525890	     -2.79958080	      2.13600080	      1.07598178	      0.99892081	     52.66015337	      7.74290575	     -6.26613262	     61.94109105	      1.08107598	     -1.42727679	    -22.35048143	      0.00000000	    -12.59363557	    -10.69858524	    -33.33907033	     28.73372846	      0.50149817	    -23.64916569	     -6.51604866	      0.00000000
      7.54000000	    -15.03703605	     -7.02770263	     -2.12462885	      2.13662312	      1.07912678	      0.99934252	     51.17862454	      7.69906132	     -7.52839885	     57.52146081	      1.00393888	     -0.98654228	    -20.16088865	      0.00000000	    -13.50179380	    -11.73598269	    -32.04521509	     31.02618511	      0.54150908	    -23.58706904	     -7.97026769	      0.00000000
      7.54666667	    -14.21016644	     -7.62356146	     -1.41224444	      2.13706026	      1.08203860	      0.99968023	     49.50226539	      7.63875794	     -8.89773844	     53.03530742	      0.92564073	     -0.50767388	    -17.56391241	      0.00000000	    -14.31661108	    -12.67639627	    -30.31627490	     33.51055120	      0.58486945	    -23.60384612	     -9.16397049	      0.00000000
      7.55333333	    -13.33038582	     -8.11881204	     -0.69535084	      2.13727962	      1.08456226	      0.99992738	     47.71196052	      7.53120059	    -10.34335485	     48.56858476	      0.84768172	      0.03310696	    -14.50498807	      0.00000000	    -15.00049210	    -13.44571102	    -28.28920482	     36.18446849	      0.63153811	    -23.73625466	    -10.11624322	      0.00000000
      7.56000000	    -12.35893835	     -8.63354750	      0.00419094	      2.13733602	      1.08677153	      1.00008269	     45.74259711	      7.53873093	    -11.87481383	     44.06828247	      0.76913662	      0.55172632	    -11.21880281	      0.00000000	    -15.62999021	    -14.22042501	    -26.26199689	     39.08261399	      0.68212029	    -23.91428849	    -10.61212984	      0.00000000
      7.56666667	    -11.61115333	     -8.86823839	      0.63738334	      2.13709910	      1.08810884	      1.00019598	     44.04552013	      7.37347125	    -13.34569624	     39.81559374	      0.69491320	      1.25640470	     -7.49964376	      0.00000000	    -15.83545968	    -14.62155610	    -24.06164145	     42.17405944	      0.73607620	    -24.12035945	    -10.94840367	      0.00000000
      7.57333333	    -10.35283244	     -9.39437213	      1.22349312	      2.13705533	      1.08973228	      1.00015520	     41.67753321	      7.64828004	    -14.98175963	     35.46096875	      0.61891066	      1.96801332	     -3.54678055	      0.00000000	    -16.63128081	    -15.33197524	    -22.38682805	     45.27031217	      0.79011600	    -24.33923857	    -10.73877344	      0.00000000
      7.58000000	     -9.37839397	     -9.75820152	      1.65013505	      2.13677654	      1.09040091	      1.00023062	     39.64462416	      7.95782122	    -16.38535832	     31.35937166	      0.54732429	      2.76374896	      0.38482551	      0.00000000	    -17.02197186	    -15.84350608	    -20.87223291	     48.54798014	      0.84732210	    -24.50642003	    -10.30379946	      0.00000000
      7.58666667	     -8.37520016	    -10.14898276	      1.98757006	      2.13640930	      1.09064584	      1.00041409	     37.56677056	      8.48205702	    -17.56391784	     27.39657803	      0.47816049	      3.48318217	      3.99820174	      0.00000000	    -17.40481399	    -16.38903704	    -19.63457690	     51.90309743	      0.90587994	    -24.56887605	     -9.69575714	      0.00000000
      7.59333333	     -7.63573933	    -10.44660317	      2.13286920	      2.13586114	      1.09002967	      1.00078306	     35.80606720	      9.10173602	    -18.29382723	     23.73223064	      0.41420556	      4.22716362	      7.07034823	      0.00000000	    -17.46579183	    -16.81563980	    -18.65608882	     55.35737886	      0.96616853	    -24.59896304	     -9.03767614	      0.00000000
      7.60000000	     -6.60603267	    -10.89129200	      2.17822993	      2.13549384	      1.08936588	      1.00110864	     33.68047196	     10.01439310	    -18.79330159	     20.20541055	      0.35265094	      4.78813756	      9.82885581	      0.00000000	    -17.93529145	    -17.38234809	    -18.09826295	     58.68857877	      1.02430893	    -24.64444372	     -8.50891940	      0.00000000
      7.60666667	     -6.12991494	    -11.12896785	      2.07364644	      2.13483983	      1.08745869	      1.00155936	     32.26240307	     10.72608358	    -18.89278927	     17.25268593	      0.30111617	      5.33356967	     11.68651833	      0.00000000	    -17.67519826	    -17.71921597	    -17.53466210	     62.21455293	      1.08584879	    -24.50525208	     -7.99025444	      0.00000000
      7.61333333	     -5.24195845	    -11.58766544	      1.92884400	      2.13443108	      1.08577975	      1.00189833	     30.30583690	     11.77102110	    -18.65539782	     14.39622638	      0.25126155	      5.58659057	     12.78502870	      0.00000000	    -17.95605702	    -18.27432408	    -17.31577001	     65.56787017	      1.14437522	    -24.38579990	     -7.65852455	      0.00000000
      7.62000000	     -5.10187226	    -11.52138414	      1.40918937	      2.13356901	      1.08263797	      1.00253817	     29.49714979	     12.14884346	    -18.41310380	     12.82957014	      0.22391824	      6.22882567	     13.79069222	      0.00000000	    -17.33837070	    -18.09261013	    -17.00851417	     69.02361842	      1.20468940	    -24.25784101	     -7.93752551	      0.00000000
      7.62666667	     -4.41268148	    -12.19453610	      1.31540251	      2.13329541	      1.07988164	      1.00259465	     27.76637406	     13.29330327	    -17.84258755	     10.66769711	      0.18618644	      5.80329868	     13.01445122	      0.00000000	    -17.27649991	    -18.96420397	    -16.88134328	     72.44491230	      1.26440225	    -24.03323345	     -7.91565215	      0.00000000
      7.63333333	     -4.30037918	    -12.36200591	      0.78269062	      2.13251923	      1.07591275	      1.00302427	     27.17922483	     13.70271460	    -17.90377214	     10.22584045	      0.17847458	      6.02643484	     13.15383913	      0.00000000	    -16.54245406	    -19.09136493	    -16.76306745	     75.90682519	      1.32482402	    -23.80861884	     -8.55927111	      0.00000000
      7.64000000	     -4.18565461	    -12.62858403	      0.28132555	      2.13177953	      1.07162072	      1.00335412	     26.66239100	     14.11283888	    -18.11775529	     10.28324005	      0.17947640	      5.98452916	     12.87217976	      0.00000000	    -15.73919920	    -19.36020358	    -16.65606773	     79.35587054	      1.38502122	    -23.61552192	     -9.35165398	      0.00000000
      7.64666667	     -4.54262979	    -12.68109006	     -0.39173199	      2.13069485	      1.06643110	      1.00375247	     26.83449547	     14.20560705	    -18.31331918	     11.13606129	      0.19436094	      5.87346363	     12.34163052	      0.00000000	    -14.27658139	    -19.33912791	    -16.44898861	     82.88908798	      1.44668750	    -23.46000717	    -10.45550851	      0.00000000
      7.65333333	     -4.88634602	    -12.73064344	     -1.13557159	      2.12953603	      1.06084312	      1.00414390	     27.18222194	     14.15404128	    -18.86952147	     12.78946879	      0.22321834	      5.96930561	     12.25906698	      0.00000000	    -12.78001678	    -19.31985658	    -16.31838085	     86.37555147	      1.50753777	    -23.38095102	    -11.83687892	      0.00000000
      7.66000000	     -5.25122351	    -12.76279417	     -1.85110709	      2.12828365	      1.05489939	      1.00434774	     27.63356204	     13.94785867	    -19.62898956	     14.96194301	      0.26113517	      6.03209688	     12.45284631	      0.00000000	    -11.13510220	    -19.27516549	    -16.09325298	     89.84569961	      1.56810328	    -23.33166681	    -13.42501676	      0.00000000
      7.66666667	     -5.48937554	    -13.04325553	     -2.48691694	      2.12703740	      1.04897817	      1.00444992	     27.74921648	     14.09869652	    -19.71058959	     16.92657559	      0.29542448	      5.82530471	     11.64904488	      0.00000000	     -9.53970048	    -19.53998564	    -15.81737400	     93.25828965	      1.62766421	    -23.39444955	    -15.15478600	      0.00000000
      7.67333333	     -6.08478390	    -12.99551355	     -3.39334770	      2.12525138	      1.04226422	      1.00479861	     28.44094472	     13.90288470	    -19.64896723	     19.65951427	      0.34312325	      5.92420773	     11.01068442	      0.00000000	     -7.43655068	    -19.42760761	    -15.60707588	     96.69293116	      1.68761001	    -23.40371764	    -16.90643987	      0.00000000
      7.68000000	     -6.59141647	    -13.03348298	     -4.29367072	      2.12327592	      1.03550607	      1.00518908	     29.00071456	     13.82350980	    -19.44266751	     22.54963695	      0.39356541	      6.32608600	     10.33565108	      0.00000000	     -5.33602965	    -19.47803236	    -15.39378380	    100.06224697	      1.74641567	    -23.41031276	    -18.60765743	      0.00000000
